<?xml version="1.0" encoding="UTF-8" standalone="no"?>
<!DOCTYPE svg PUBLIC "-//W3C//DTD SVG 1.1//EN" "http://www.w3.org/Graphics/SVG/1.1/DTD/svg11.dtd">
<svg width="100%" height="100%" viewBox="0 0 800 800" version="1.1" xmlns="http://www.w3.org/2000/svg" xmlns:xlink="http://www.w3.org/1999/xlink" xml:space="preserve" xmlns:serif="http://www.serif.com/" style="fill-rule:evenodd;clip-rule:evenodd;stroke-linejoin:round;stroke-miterlimit:2;">
    <g id="Picto" transform="matrix(3.779527,0,0,3.779527,0.000019,0)">
        <g id="g9" transform="matrix(1.120628,0,0,1.120628,-10.083802,-12.75516)">
            <path id="path2" d="M164.956,87.909C170.144,87.909 174.831,89.233 179.017,91.881C183.203,94.492 186.459,98.035 188.785,102.507C191.146,106.98 192.327,111.81 192.327,116.998C192.327,122.365 191.129,127.32 188.731,131.864C186.37,136.408 183.096,140.04 178.91,142.759C174.724,145.443 170.036,146.784 164.848,146.784C160.734,146.784 156.816,145.944 153.095,144.262C149.409,142.58 146.511,140.273 144.4,137.339L144.4,146.694L123.63,146.694L123.63,136.818L133.613,136.818L133.613,74.706L123.63,74.706L123.63,64.938L144.4,64.938L144.4,97.462C150.053,91.093 156.905,87.909 164.956,87.909ZM162.648,136.909C166.154,136.909 169.285,135.961 172.04,134.065C174.795,132.168 176.924,129.682 178.427,126.605C179.929,123.528 180.681,120.254 180.681,116.783C180.681,113.348 179.912,110.2 178.373,107.337C176.835,104.475 174.706,102.203 171.986,100.521C169.267,98.84 166.19,97.999 162.755,97.999C159.32,97.999 156.243,98.875 153.524,100.629C150.805,102.382 148.676,104.761 147.137,107.767C145.599,110.772 144.83,114.118 144.83,117.803C144.83,121.309 145.617,124.53 147.191,127.463C148.765,130.397 150.912,132.705 153.631,134.387C156.351,136.068 159.356,136.909 162.648,136.909Z" style="fill-rule:nonzero;"/>
            <path id="path8" d="M61.992,74.327L61.992,64.972L82.762,64.972L82.762,74.847L72.779,74.847L72.779,136.782L82.762,136.782L82.762,146.727L61.992,146.727L61.992,113.328C62.115,101.478 61.992,74.327 61.992,74.327Z" style="fill-rule:nonzero;"/>
        </g>
    </g>
</svg>
